<mxfile host="Electron" agent="Mozilla/5.0 (Macintosh; Intel Mac OS X 10_15_7) AppleWebKit/537.36 (KHTML, like Gecko) draw.io/26.0.9 Chrome/128.0.6613.186 Electron/32.2.5 Safari/537.36" version="26.0.9">
  <diagram name="Page-1" id="5bHaEas3I0YWfYlRU1f9">
    <mxGraphModel dx="2965" dy="-292" grid="0" gridSize="10" guides="1" tooltips="1" connect="1" arrows="1" fold="1" page="0" pageScale="1" pageWidth="1654" pageHeight="1169" math="0" shadow="0">
      <root>
        <mxCell id="0" />
        <mxCell id="1" parent="0" />
        <mxCell id="AxrgLiGodLh9br-qrAmf-45" value="" style="rounded=1;whiteSpace=wrap;html=1;strokeColor=#0070F2;fillColor=#EBF8FF;arcSize=24;absoluteArcSize=1;imageWidth=64;imageHeight=64;strokeWidth=1.5;" vertex="1" parent="1">
          <mxGeometry x="279" y="2205" width="679" height="711" as="geometry" />
        </mxCell>
        <mxCell id="AxrgLiGodLh9br-qrAmf-61" style="edgeStyle=orthogonalEdgeStyle;rounded=0;orthogonalLoop=1;jettySize=auto;html=1;" edge="1" parent="1" source="AxrgLiGodLh9br-qrAmf-42" target="AxrgLiGodLh9br-qrAmf-62">
          <mxGeometry relative="1" as="geometry">
            <mxPoint x="260.45454545454504" y="2872.5" as="targetPoint" />
          </mxGeometry>
        </mxCell>
        <mxCell id="AxrgLiGodLh9br-qrAmf-67" style="edgeStyle=orthogonalEdgeStyle;rounded=0;orthogonalLoop=1;jettySize=auto;html=1;" edge="1" parent="1">
          <mxGeometry relative="1" as="geometry">
            <mxPoint x="272" y="2872.5" as="targetPoint" />
            <mxPoint x="103" y="2872.4666666666667" as="sourcePoint" />
          </mxGeometry>
        </mxCell>
        <mxCell id="AxrgLiGodLh9br-qrAmf-42" value="&lt;font size=&quot;3&quot;&gt;SAP ECC&amp;nbsp;&lt;/font&gt;&lt;div&gt;&lt;font size=&quot;3&quot;&gt;SAP S/4HANA&amp;nbsp;&lt;/font&gt;&lt;/div&gt;" style="rounded=1;whiteSpace=wrap;html=1;strokeColor=#0070F2;fillColor=#ffffff;arcSize=24;absoluteArcSize=1;imageWidth=64;imageHeight=64;strokeWidth=1.5;" vertex="1" parent="1">
          <mxGeometry x="-289" y="2829" width="388" height="87" as="geometry" />
        </mxCell>
        <mxCell id="AxrgLiGodLh9br-qrAmf-44" value="&lt;font face=&quot;arial&quot; style=&quot;font-size: 21px;&quot;&gt;&lt;b style=&quot;&quot;&gt;SAP Business Data Cloud&amp;nbsp;&lt;/b&gt;&lt;/font&gt;" style="text;html=1;align=center;verticalAlign=middle;resizable=0;points=[[0,0.5,0,0,0],[0.5,0,0,0,0],[0.5,1,0,0,0],[1,0.5,0,0,0]];autosize=1;strokeColor=none;fillColor=none;fontSize=12;fontColor=#1D2D3E;fontFamily=Helvetica;" vertex="1" parent="1">
          <mxGeometry x="287.00000000000006" y="2222" width="290" height="40" as="geometry" />
        </mxCell>
        <mxCell id="AxrgLiGodLh9br-qrAmf-46" value="" style="rounded=1;whiteSpace=wrap;html=1;arcSize=24;absoluteArcSize=1;imageWidth=64;imageHeight=64;strokeWidth=1.5;dashed=1;dashPattern=1 2;" vertex="1" parent="1">
          <mxGeometry x="306" y="2279" width="615" height="74" as="geometry" />
        </mxCell>
        <mxCell id="AxrgLiGodLh9br-qrAmf-47" value="&lt;font face=&quot;arial&quot; style=&quot;font-size: 18px;&quot;&gt;&lt;b style=&quot;&quot;&gt;SAP Analytics Cloud&lt;/b&gt;&lt;/font&gt;" style="text;html=1;align=center;verticalAlign=middle;resizable=0;points=[[0,0.5,0,0,0],[0.5,0,0,0,0],[0.5,1,0,0,0],[1,0.5,0,0,0]];autosize=1;strokeColor=none;fillColor=none;fontSize=12;fontColor=#1D2D3E;fontFamily=Helvetica;" vertex="1" parent="1">
          <mxGeometry x="310.00000000000006" y="2283" width="195" height="34" as="geometry" />
        </mxCell>
        <mxCell id="AxrgLiGodLh9br-qrAmf-48" value="" style="rounded=1;whiteSpace=wrap;html=1;arcSize=24;absoluteArcSize=1;imageWidth=64;imageHeight=64;strokeWidth=1.5;dashed=1;dashPattern=1 2;" vertex="1" parent="1">
          <mxGeometry x="310" y="2372" width="610" height="331" as="geometry" />
        </mxCell>
        <mxCell id="AxrgLiGodLh9br-qrAmf-49" value="&lt;font face=&quot;arial&quot; style=&quot;font-size: 18px;&quot;&gt;&lt;b style=&quot;&quot;&gt;SAP Datasphere&lt;/b&gt;&lt;/font&gt;" style="text;html=1;align=center;verticalAlign=middle;resizable=0;points=[[0,0.5,0,0,0],[0.5,0,0,0,0],[0.5,1,0,0,0],[1,0.5,0,0,0]];autosize=1;strokeColor=none;fillColor=none;fontSize=12;fontColor=#1D2D3E;fontFamily=Helvetica;" vertex="1" parent="1">
          <mxGeometry x="315.00000000000006" y="2374" width="158" height="34" as="geometry" />
        </mxCell>
        <mxCell id="AxrgLiGodLh9br-qrAmf-50" value="" style="rounded=1;whiteSpace=wrap;html=1;arcSize=24;absoluteArcSize=1;imageWidth=64;imageHeight=64;strokeWidth=1.5;dashed=1;dashPattern=1 2;" vertex="1" parent="1">
          <mxGeometry x="310" y="2720" width="611" height="74" as="geometry" />
        </mxCell>
        <mxCell id="AxrgLiGodLh9br-qrAmf-51" value="" style="rounded=1;whiteSpace=wrap;html=1;arcSize=24;absoluteArcSize=1;imageWidth=64;imageHeight=64;strokeWidth=1.5;dashed=1;dashPattern=1 2;" vertex="1" parent="1">
          <mxGeometry x="310" y="2826" width="611" height="74" as="geometry" />
        </mxCell>
        <mxCell id="AxrgLiGodLh9br-qrAmf-52" value="&lt;font face=&quot;arial&quot; style=&quot;font-size: 18px;&quot;&gt;&lt;b style=&quot;&quot;&gt;SAP Foundation Services&lt;/b&gt;&lt;/font&gt;" style="text;html=1;align=center;verticalAlign=middle;resizable=0;points=[[0,0.5,0,0,0],[0.5,0,0,0,0],[0.5,1,0,0,0],[1,0.5,0,0,0]];autosize=1;strokeColor=none;fillColor=none;fontSize=12;fontColor=#1D2D3E;fontFamily=Helvetica;" vertex="1" parent="1">
          <mxGeometry x="510" y="2740" width="237" height="34" as="geometry" />
        </mxCell>
        <mxCell id="AxrgLiGodLh9br-qrAmf-53" value="&lt;font face=&quot;arial&quot; style=&quot;font-size: 18px;&quot;&gt;&lt;b style=&quot;&quot;&gt;SAP S/4HANA RISE , PCE&lt;/b&gt;&lt;/font&gt;" style="text;html=1;align=center;verticalAlign=middle;resizable=0;points=[[0,0.5,0,0,0],[0.5,0,0,0,0],[0.5,1,0,0,0],[1,0.5,0,0,0]];autosize=1;strokeColor=none;fillColor=none;fontSize=12;fontColor=#1D2D3E;fontFamily=Helvetica;" vertex="1" parent="1">
          <mxGeometry x="510" y="2846" width="237" height="34" as="geometry" />
        </mxCell>
        <mxCell id="AxrgLiGodLh9br-qrAmf-54" value="" style="rounded=1;whiteSpace=wrap;html=1;strokeColor=#0070F2;fillColor=#3399FF;arcSize=24;absoluteArcSize=1;imageWidth=64;imageHeight=64;strokeWidth=1.5;" vertex="1" parent="1">
          <mxGeometry x="525" y="2302" width="333" height="383" as="geometry" />
        </mxCell>
        <mxCell id="AxrgLiGodLh9br-qrAmf-55" value="&lt;font style=&quot;font-size: 16px;&quot;&gt;SAP Managed Data Product&amp;nbsp;&lt;/font&gt;&lt;div&gt;&lt;font style=&quot;font-size: 13px;&quot;&gt;&lt;br&gt;&lt;/font&gt;&lt;/div&gt;&lt;div&gt;&lt;font style=&quot;font-size: 13px;&quot;&gt;&lt;br&gt;&lt;/font&gt;&lt;/div&gt;" style="rounded=1;whiteSpace=wrap;html=1;arcSize=24;absoluteArcSize=1;imageWidth=64;imageHeight=64;strokeWidth=1.5;dashed=1;dashPattern=1 2;" vertex="1" parent="1">
          <mxGeometry x="544" y="2553" width="294" height="118" as="geometry" />
        </mxCell>
        <mxCell id="AxrgLiGodLh9br-qrAmf-56" value="Remote Table" style="rounded=1;whiteSpace=wrap;html=1;strokeColor=#0070F2;fillColor=#EBF8FF;arcSize=24;absoluteArcSize=1;imageWidth=64;imageHeight=64;strokeWidth=1.5;dashed=1;dashPattern=8 8;" vertex="1" parent="1">
          <mxGeometry x="606" y="2634" width="160" height="26" as="geometry" />
        </mxCell>
        <mxCell id="AxrgLiGodLh9br-qrAmf-57" value="&lt;div&gt;View&lt;/div&gt;" style="rounded=1;whiteSpace=wrap;html=1;arcSize=24;absoluteArcSize=1;imageWidth=64;imageHeight=64;strokeWidth=1.5;dashed=1;dashPattern=1 2;" vertex="1" parent="1">
          <mxGeometry x="544.5" y="2487" width="294" height="40" as="geometry" />
        </mxCell>
        <mxCell id="AxrgLiGodLh9br-qrAmf-58" value="&lt;div&gt;Analytic Model&lt;/div&gt;" style="rounded=1;whiteSpace=wrap;html=1;arcSize=24;absoluteArcSize=1;imageWidth=64;imageHeight=64;strokeWidth=1.5;dashed=1;dashPattern=1 2;" vertex="1" parent="1">
          <mxGeometry x="544.5" y="2408" width="294" height="40" as="geometry" />
        </mxCell>
        <mxCell id="AxrgLiGodLh9br-qrAmf-59" value="&lt;div&gt;Story&lt;/div&gt;" style="rounded=1;whiteSpace=wrap;html=1;arcSize=24;absoluteArcSize=1;imageWidth=64;imageHeight=64;strokeWidth=1.5;dashed=1;dashPattern=1 2;" vertex="1" parent="1">
          <mxGeometry x="544" y="2313" width="294" height="40" as="geometry" />
        </mxCell>
        <mxCell id="AxrgLiGodLh9br-qrAmf-60" value="" style="rounded=1;whiteSpace=wrap;html=1;strokeColor=#0070F2;fillColor=#EBF8FF;arcSize=24;absoluteArcSize=1;imageWidth=64;imageHeight=64;strokeWidth=1.5;" vertex="1" parent="1">
          <mxGeometry x="-287" y="2205" width="382" height="603" as="geometry" />
        </mxCell>
        <mxCell id="AxrgLiGodLh9br-qrAmf-62" value="Data Source" style="rounded=1;whiteSpace=wrap;html=1;strokeColor=#475E75;fillColor=#ffffff;arcSize=24;absoluteArcSize=1;imageWidth=64;imageHeight=64;strokeWidth=1.5;" vertex="1" parent="1">
          <mxGeometry x="-258" y="2720" width="325" height="64" as="geometry" />
        </mxCell>
        <mxCell id="AxrgLiGodLh9br-qrAmf-63" value="InfoObject, aDSO, InfoCube, DSO" style="rounded=1;whiteSpace=wrap;html=1;strokeColor=#475E75;fillColor=#ffffff;arcSize=24;absoluteArcSize=1;imageWidth=64;imageHeight=64;strokeWidth=1.5;" vertex="1" parent="1">
          <mxGeometry x="-258.5" y="2561" width="325" height="64" as="geometry" />
        </mxCell>
        <mxCell id="AxrgLiGodLh9br-qrAmf-66" style="edgeStyle=orthogonalEdgeStyle;rounded=0;orthogonalLoop=1;jettySize=auto;html=1;" edge="1" parent="1">
          <mxGeometry relative="1" as="geometry">
            <mxPoint x="223.090909090909" y="2672" as="targetPoint" />
            <mxPoint x="147" y="2672.0666666666666" as="sourcePoint" />
            <Array as="points">
              <mxPoint x="216" y="2672" />
              <mxPoint x="223" y="2673" />
            </Array>
          </mxGeometry>
        </mxCell>
        <mxCell id="AxrgLiGodLh9br-qrAmf-64" value="" style="shape=curlyBracket;whiteSpace=wrap;html=1;rounded=1;flipH=1;labelPosition=right;verticalLabelPosition=middle;align=left;verticalAlign=middle;" vertex="1" parent="1">
          <mxGeometry x="108" y="2551" width="20" height="242" as="geometry" />
        </mxCell>
        <mxCell id="AxrgLiGodLh9br-qrAmf-65" value="" style="shape=curlyBracket;whiteSpace=wrap;html=1;rounded=1;labelPosition=left;verticalLabelPosition=middle;align=right;verticalAlign=middle;" vertex="1" parent="1">
          <mxGeometry x="243" y="2551" width="20" height="236" as="geometry" />
        </mxCell>
        <mxCell id="AxrgLiGodLh9br-qrAmf-68" value="InfoObject, aDSO, InfoCube, DSO" style="rounded=1;whiteSpace=wrap;html=1;strokeColor=#475E75;fillColor=#ffffff;arcSize=24;absoluteArcSize=1;imageWidth=64;imageHeight=64;strokeWidth=1.5;" vertex="1" parent="1">
          <mxGeometry x="-257.5" y="2408" width="325" height="64" as="geometry" />
        </mxCell>
        <mxCell id="AxrgLiGodLh9br-qrAmf-69" value="InfoObject, aDSO, InfoCube, DSO" style="rounded=1;whiteSpace=wrap;html=1;strokeColor=#475E75;fillColor=#ffffff;arcSize=24;absoluteArcSize=1;imageWidth=64;imageHeight=64;strokeWidth=1.5;" vertex="1" parent="1">
          <mxGeometry x="-251" y="2317" width="325" height="64" as="geometry" />
        </mxCell>
        <mxCell id="AxrgLiGodLh9br-qrAmf-70" value="&lt;font face=&quot;arial&quot; style=&quot;font-size: 21px;&quot;&gt;&lt;b style=&quot;&quot;&gt;SAP BW on-premise&lt;/b&gt;&lt;/font&gt;" style="text;html=1;align=center;verticalAlign=middle;resizable=0;points=[[0,0.5,0,0,0],[0.5,0,0,0,0],[0.5,1,0,0,0],[1,0.5,0,0,0]];autosize=1;strokeColor=none;fillColor=none;fontSize=12;fontColor=#1D2D3E;fontFamily=Helvetica;" vertex="1" parent="1">
          <mxGeometry x="-198.49999999999994" y="2232" width="221" height="37" as="geometry" />
        </mxCell>
        <mxCell id="AxrgLiGodLh9br-qrAmf-71" value="" style="shape=curlyBracket;whiteSpace=wrap;html=1;rounded=1;flipH=1;labelPosition=right;verticalLabelPosition=middle;align=left;verticalAlign=middle;" vertex="1" parent="1">
          <mxGeometry x="112" y="2331" width="20" height="120" as="geometry" />
        </mxCell>
        <mxCell id="AxrgLiGodLh9br-qrAmf-72" value="" style="shape=curlyBracket;whiteSpace=wrap;html=1;rounded=1;labelPosition=left;verticalLabelPosition=middle;align=right;verticalAlign=middle;" vertex="1" parent="1">
          <mxGeometry x="243" y="2295" width="20" height="219" as="geometry" />
        </mxCell>
        <mxCell id="AxrgLiGodLh9br-qrAmf-73" style="edgeStyle=orthogonalEdgeStyle;rounded=0;orthogonalLoop=1;jettySize=auto;html=1;" edge="1" parent="1">
          <mxGeometry relative="1" as="geometry">
            <mxPoint x="227.090909090909" y="2392" as="targetPoint" />
            <mxPoint x="151" y="2392.0666666666666" as="sourcePoint" />
            <Array as="points">
              <mxPoint x="220" y="2392" />
              <mxPoint x="227" y="2393" />
            </Array>
          </mxGeometry>
        </mxCell>
      </root>
    </mxGraphModel>
  </diagram>
</mxfile>
